<svg width="144" height="143" viewBox="0 0 144 143" fill="none" xmlns="http://www.w3.org/2000/svg">
<path d="M142.56 71C143.355 71 144.002 71.6449 143.986 72.44C143.722 85.6015 139.855 98.4492 132.792 109.58C125.471 121.115 115.019 130.33 102.656 136.148C90.2936 141.965 76.5311 144.145 62.976 142.432C49.4209 140.72 36.6329 135.186 26.1055 126.477C15.5781 117.768 7.74598 106.243 3.52393 93.2492C-0.698113 80.2551 -1.13579 66.3279 2.26201 53.0943C5.65982 39.8608 12.7528 27.8671 22.7126 18.5143C32.3222 9.49025 44.2177 3.28405 57.0967 0.559291C57.8748 0.394678 58.6293 0.90861 58.7784 1.68981C58.9274 2.47102 58.4144 3.22361 57.6365 3.38888C45.2943 6.01081 33.8953 11.9638 24.6841 20.6137C15.1227 29.5924 8.31343 41.1063 5.05154 53.8106C1.78964 66.5148 2.20982 79.8849 6.26298 92.3593C10.3161 104.834 17.835 115.897 27.9413 124.258C38.0476 132.619 50.3241 137.931 63.337 139.575C76.3499 141.219 89.5619 139.126 101.43 133.542C113.298 127.957 123.332 119.111 130.36 108.036C137.131 97.3675 140.842 85.0549 141.105 72.44C141.122 71.6449 141.765 71 142.56 71Z" fill="#FED530"/>
</svg>
